<svg aria-roledescription="er" role="graphics-document document" viewBox="0 0 645.7366943359375 669" style="max-width: 100%;" xmlns="http://www.w3.org/2000/svg" width="100%" id="graph-div" height="100%" xmlns:xlink="http://www.w3.org/1999/xlink"><style>@import url("https://cdnjs.cloudflare.com/ajax/libs/font-awesome/6.2.0/css/all.min.css");'</style><style>#graph-div{font-family:"trebuchet ms",verdana,arial,sans-serif;font-size:12px;fill:#333;}#graph-div .error-icon{fill:hsl(60, 90%, 100%);}#graph-div .error-text{fill:rgb(0, 0, 0);stroke:rgb(0, 0, 0);}#graph-div .edge-thickness-normal{stroke-width:2px;}#graph-div .edge-thickness-thick{stroke-width:3.5px;}#graph-div .edge-pattern-solid{stroke-dasharray:0;}#graph-div .edge-pattern-dashed{stroke-dasharray:3;}#graph-div .edge-pattern-dotted{stroke-dasharray:2;}#graph-div .marker{fill:#0b0b0b;stroke:#0b0b0b;}#graph-div .marker.cross{stroke:#0b0b0b;}#graph-div svg{font-family:"trebuchet ms",verdana,arial,sans-serif;font-size:12px;}#graph-div .entityBox{fill:#ECECFE;stroke:#BCBCFB;}#graph-div .attributeBoxOdd{fill:#ffffff;stroke:#BCBCFB;}#graph-div .attributeBoxEven{fill:#f2f2f2;stroke:#BCBCFB;}#graph-div .relationshipLabelBox{fill:hsl(60, 90%, 100%);opacity:0.7;background-color:hsl(60, 90%, 100%);}#graph-div .relationshipLabelBox rect{opacity:0.5;}#graph-div .relationshipLine{stroke:#0b0b0b;}#graph-div .entityTitleText{text-anchor:middle;font-size:18px;fill:#333;}#graph-div #MD_PARENT_START{fill:#f5f5f5!important;stroke:#0b0b0b!important;stroke-width:1;}#graph-div #MD_PARENT_END{fill:#f5f5f5!important;stroke:#0b0b0b!important;stroke-width:1;}#graph-div :root{--mermaid-font-family:"trebuchet ms",verdana,arial,sans-serif;}</style><g></g><defs><marker orient="auto" markerHeight="240" markerWidth="190" refY="7" refX="0" id="MD_PARENT_START"><path d="M 18,7 L9,13 L1,7 L9,1 Z"></path></marker></defs><defs><marker orient="auto" markerHeight="28" markerWidth="20" refY="7" refX="19" id="MD_PARENT_END"><path d="M 18,7 L9,13 L1,7 L9,1 Z"></path></marker></defs><defs><marker orient="auto" markerHeight="18" markerWidth="18" refY="9" refX="0" id="ONLY_ONE_START"><path d="M9,0 L9,18 M15,0 L15,18" fill="none" stroke="gray"></path></marker></defs><defs><marker orient="auto" markerHeight="18" markerWidth="18" refY="9" refX="18" id="ONLY_ONE_END"><path d="M3,0 L3,18 M9,0 L9,18" fill="none" stroke="gray"></path></marker></defs><defs><marker orient="auto" markerHeight="18" markerWidth="30" refY="9" refX="0" id="ZERO_OR_ONE_START"><circle r="6" cy="9" cx="21" fill="white" stroke="gray"></circle><path d="M9,0 L9,18" fill="none" stroke="gray"></path></marker></defs><defs><marker orient="auto" markerHeight="18" markerWidth="30" refY="9" refX="30" id="ZERO_OR_ONE_END"><circle r="6" cy="9" cx="9" fill="white" stroke="gray"></circle><path d="M21,0 L21,18" fill="none" stroke="gray"></path></marker></defs><defs><marker orient="auto" markerHeight="36" markerWidth="45" refY="18" refX="18" id="ONE_OR_MORE_START"><path d="M0,18 Q 18,0 36,18 Q 18,36 0,18 M42,9 L42,27" fill="none" stroke="gray"></path></marker></defs><defs><marker orient="auto" markerHeight="36" markerWidth="45" refY="18" refX="27" id="ONE_OR_MORE_END"><path d="M3,9 L3,27 M9,18 Q27,0 45,18 Q27,36 9,18" fill="none" stroke="gray"></path></marker></defs><defs><marker orient="auto" markerHeight="36" markerWidth="57" refY="18" refX="18" id="ZERO_OR_MORE_START"><circle r="6" cy="18" cx="48" fill="white" stroke="gray"></circle><path d="M0,18 Q18,0 36,18 Q18,36 0,18" fill="none" stroke="gray"></path></marker></defs><defs><marker orient="auto" markerHeight="36" markerWidth="57" refY="18" refX="39" id="ZERO_OR_MORE_END"><circle r="6" cy="18" cx="9" fill="white" stroke="gray"></circle><path d="M21,18 Q39,0 57,18 Q39,36 21,18" fill="none" stroke="gray"></path></marker></defs><path marker-start="url(#ONLY_ONE_START)" marker-end="url(#ONE_OR_MORE_END)" style="stroke: gray; fill: none;" d="M84.41038513183594,117.5L84.41038513183594,131.08333333333334C84.41038513183594,144.66666666666666,84.41038513183594,171.83333333333334,84.41038513183594,202.5C84.41038513183594,233.16666666666666,84.41038513183594,267.3333333333333,84.41038513183594,284.4166666666667L84.41038513183594,301.5" class="er relationshipLine"></path><path marker-start="url(#ONLY_ONE_START)" marker-end="url(#ONE_OR_MORE_END)" style="stroke: gray; fill: none;" d="M84.41038513183594,388.5L84.41038513183594,405.5833333333333C84.41038513183594,422.6666666666667,84.41038513183594,456.8333333333333,93.50964212417603,482.25C102.60889911651611,507.6666666666667,120.80741310119629,524.3333333333334,129.90667009353638,532.6666666666666L139.00592708587646,541" class="er relationshipLine"></path><path marker-start="url(#ONLY_ONE_START)" marker-end="url(#ONE_OR_MORE_END)" style="stroke: gray; fill: none;" d="M311.52783966064453,399L311.52783966064453,414.3333333333333C311.52783966064453,429.6666666666667,311.52783966064453,460.3333333333333,302.42858266830444,484C293.32932567596436,507.6666666666667,275.1308116912842,524.3333333333334,266.0315546989441,532.6666666666666L256.932297706604,541" class="er relationshipLine"></path><path marker-start="url(#ONLY_ONE_START)" marker-end="url(#ONE_OR_MORE_END)" style="stroke: gray; fill: none;" d="M549.9858016967773,149L549.9858016967773,157.33333333333334C549.9858016967773,165.66666666666666,549.9858016967773,182.33333333333334,549.9858016967773,199C549.9858016967773,215.66666666666666,549.9858016967773,232.33333333333334,549.9858016967773,240.66666666666666L549.9858016967773,249" class="er relationshipLine"></path><g transform="translate(20,301.5 )" id="entity-CART-e3ab3ce5-09ce-52c0-b080-5a59494cc60a"><rect height="87" width="128.82077026367188" y="0" x="0" class="er entityBox"></rect><text transform="translate(64.41038513183594,12)" style="dominant-baseline: middle; text-anchor: middle; font-size: 12px;" y="0" x="0" id="text-entity-CART-e3ab3ce5-09ce-52c0-b080-5a59494cc60a" class="er entityLabel">CART</text><rect height="21" width="46.62983703613281" y="24" x="0" class="er attributeBoxOdd"></rect><text transform="translate(5,34.5)" style="dominant-baseline: middle; font-size: 10.2px;" y="0" x="0" id="text-entity-CART-e3ab3ce5-09ce-52c0-b080-5a59494cc60a-attr-1-type" class="er entityLabel">int</text><rect height="21" width="57.38761901855469" y="24" x="46.62983703613281" class="er attributeBoxOdd"></rect><text transform="translate(51.62983703613281,34.5)" style="dominant-baseline: middle; font-size: 10.2px;" y="0" x="0" id="text-entity-CART-e3ab3ce5-09ce-52c0-b080-5a59494cc60a-attr-1-name" class="er entityLabel">id</text><rect height="21" width="24.803314208984375" y="24" x="104.0174560546875" class="er attributeBoxOdd"></rect><text transform="translate(109.0174560546875,34.5)" style="dominant-baseline: middle; font-size: 10.2px;" y="0" x="0" id="text-entity-CART-e3ab3ce5-09ce-52c0-b080-5a59494cc60a-attr-1-key" class="er entityLabel">PK</text><rect height="21" width="46.62983703613281" y="45" x="0" class="er attributeBoxEven"></rect><text transform="translate(5,55.5)" style="dominant-baseline: middle; font-size: 10.2px;" y="0" x="0" id="text-entity-CART-e3ab3ce5-09ce-52c0-b080-5a59494cc60a-attr-2-type" class="er entityLabel">string</text><rect height="21" width="57.38761901855469" y="45" x="46.62983703613281" class="er attributeBoxEven"></rect><text transform="translate(51.62983703613281,55.5)" style="dominant-baseline: middle; font-size: 10.2px;" y="0" x="0" id="text-entity-CART-e3ab3ce5-09ce-52c0-b080-5a59494cc60a-attr-2-name" class="er entityLabel">user_id</text><rect height="21" width="24.803314208984375" y="45" x="104.0174560546875" class="er attributeBoxEven"></rect><text transform="translate(109.0174560546875,55.5)" style="dominant-baseline: middle; font-size: 10.2px;" y="0" x="0" id="text-entity-CART-e3ab3ce5-09ce-52c0-b080-5a59494cc60a-attr-2-key" class="er entityLabel">PK</text><rect height="21" width="46.62983703613281" y="66" x="0" class="er attributeBoxOdd"></rect><text transform="translate(5,76.5)" style="dominant-baseline: middle; font-size: 10.2px;" y="0" x="0" id="text-entity-CART-e3ab3ce5-09ce-52c0-b080-5a59494cc60a-attr-3-type" class="er entityLabel">boolean</text><rect height="21" width="57.38761901855469" y="66" x="46.62983703613281" class="er attributeBoxOdd"></rect><text transform="translate(51.62983703613281,76.5)" style="dominant-baseline: middle; font-size: 10.2px;" y="0" x="0" id="text-entity-CART-e3ab3ce5-09ce-52c0-b080-5a59494cc60a-attr-3-name" class="er entityLabel">processed</text><rect height="21" width="24.803314208984375" y="66" x="104.0174560546875" class="er attributeBoxOdd"></rect><text transform="translate(109.0174560546875,76.5)" style="dominant-baseline: middle; font-size: 10.2px;" y="0" x="0" id="text-entity-CART-e3ab3ce5-09ce-52c0-b080-5a59494cc60a-attr-3-key" class="er entityLabel"></text></g><g transform="translate(32.40165710449219,51.5 )" id="entity-CARTUSER-9148c2ca-c191-561b-9cc8-9dfe33921c7a"><rect height="66" width="104.0174560546875" y="0" x="0" class="er entityBox"></rect><text transform="translate(52.00872802734375,12)" style="dominant-baseline: middle; text-anchor: middle; font-size: 12px;" y="0" x="0" id="text-entity-CARTUSER-9148c2ca-c191-561b-9cc8-9dfe33921c7a" class="er entityLabel">CART_USER</text><rect height="21" width="46.62983703613281" y="24" x="0" class="er attributeBoxOdd"></rect><text transform="translate(5,34.5)" style="dominant-baseline: middle; font-size: 10.2px;" y="0" x="0" id="text-entity-CARTUSER-9148c2ca-c191-561b-9cc8-9dfe33921c7a-attr-1-type" class="er entityLabel">string</text><rect height="21" width="57.38761901855469" y="24" x="46.62983703613281" class="er attributeBoxOdd"></rect><text transform="translate(51.62983703613281,34.5)" style="dominant-baseline: middle; font-size: 10.2px;" y="0" x="0" id="text-entity-CARTUSER-9148c2ca-c191-561b-9cc8-9dfe33921c7a-attr-1-name" class="er entityLabel">username</text><rect height="21" width="46.62983703613281" y="45" x="0" class="er attributeBoxEven"></rect><text transform="translate(5,55.5)" style="dominant-baseline: middle; font-size: 10.2px;" y="0" x="0" id="text-entity-CARTUSER-9148c2ca-c191-561b-9cc8-9dfe33921c7a-attr-2-type" class="er entityLabel">boolean</text><rect height="21" width="57.38761901855469" y="45" x="46.62983703613281" class="er attributeBoxEven"></rect><text transform="translate(51.62983703613281,55.5)" style="dominant-baseline: middle; font-size: 10.2px;" y="0" x="0" id="text-entity-CARTUSER-9148c2ca-c191-561b-9cc8-9dfe33921c7a-attr-2-name" class="er entityLabel">processed</text></g><g transform="translate(248.82077026367188,291 )" id="entity-PRODUCT-b14524a1-8e20-5805-a382-423fd1ec339f"><rect height="108" width="125.41413879394531" y="0" x="0" class="er entityBox"></rect><text transform="translate(62.707069396972656,12)" style="dominant-baseline: middle; text-anchor: middle; font-size: 12px;" y="0" x="0" id="text-entity-PRODUCT-b14524a1-8e20-5805-a382-423fd1ec339f" class="er entityLabel">PRODUCT</text><rect height="21" width="40.95709228515625" y="24" x="0" class="er attributeBoxOdd"></rect><text transform="translate(5,34.5)" style="dominant-baseline: middle; font-size: 10.2px;" y="0" x="0" id="text-entity-PRODUCT-b14524a1-8e20-5805-a382-423fd1ec339f-attr-1-type" class="er entityLabel">int</text><rect height="21" width="59.65373229980469" y="24" x="40.95709228515625" class="er attributeBoxOdd"></rect><text transform="translate(45.95709228515625,34.5)" style="dominant-baseline: middle; font-size: 10.2px;" y="0" x="0" id="text-entity-PRODUCT-b14524a1-8e20-5805-a382-423fd1ec339f-attr-1-name" class="er entityLabel">id</text><rect height="21" width="24.803314208984375" y="24" x="100.61082458496094" class="er attributeBoxOdd"></rect><text transform="translate(105.61082458496094,34.5)" style="dominant-baseline: middle; font-size: 10.2px;" y="0" x="0" id="text-entity-PRODUCT-b14524a1-8e20-5805-a382-423fd1ec339f-attr-1-key" class="er entityLabel">PK</text><rect height="21" width="40.95709228515625" y="45" x="0" class="er attributeBoxEven"></rect><text transform="translate(5,55.5)" style="dominant-baseline: middle; font-size: 10.2px;" y="0" x="0" id="text-entity-PRODUCT-b14524a1-8e20-5805-a382-423fd1ec339f-attr-2-type" class="er entityLabel">string</text><rect height="21" width="59.65373229980469" y="45" x="40.95709228515625" class="er attributeBoxEven"></rect><text transform="translate(45.95709228515625,55.5)" style="dominant-baseline: middle; font-size: 10.2px;" y="0" x="0" id="text-entity-PRODUCT-b14524a1-8e20-5805-a382-423fd1ec339f-attr-2-name" class="er entityLabel">description</text><rect height="21" width="24.803314208984375" y="45" x="100.61082458496094" class="er attributeBoxEven"></rect><text transform="translate(105.61082458496094,55.5)" style="dominant-baseline: middle; font-size: 10.2px;" y="0" x="0" id="text-entity-PRODUCT-b14524a1-8e20-5805-a382-423fd1ec339f-attr-2-key" class="er entityLabel"></text><rect height="21" width="40.95709228515625" y="66" x="0" class="er attributeBoxOdd"></rect><text transform="translate(5,76.5)" style="dominant-baseline: middle; font-size: 10.2px;" y="0" x="0" id="text-entity-PRODUCT-b14524a1-8e20-5805-a382-423fd1ec339f-attr-3-type" class="er entityLabel">double</text><rect height="21" width="59.65373229980469" y="66" x="40.95709228515625" class="er attributeBoxOdd"></rect><text transform="translate(45.95709228515625,76.5)" style="dominant-baseline: middle; font-size: 10.2px;" y="0" x="0" id="text-entity-PRODUCT-b14524a1-8e20-5805-a382-423fd1ec339f-attr-3-name" class="er entityLabel">price</text><rect height="21" width="24.803314208984375" y="66" x="100.61082458496094" class="er attributeBoxOdd"></rect><text transform="translate(105.61082458496094,76.5)" style="dominant-baseline: middle; font-size: 10.2px;" y="0" x="0" id="text-entity-PRODUCT-b14524a1-8e20-5805-a382-423fd1ec339f-attr-3-key" class="er entityLabel"></text><rect height="21" width="40.95709228515625" y="87" x="0" class="er attributeBoxEven"></rect><text transform="translate(5,97.5)" style="dominant-baseline: middle; font-size: 10.2px;" y="0" x="0" id="text-entity-PRODUCT-b14524a1-8e20-5805-a382-423fd1ec339f-attr-4-type" class="er entityLabel">int</text><rect height="21" width="59.65373229980469" y="87" x="40.95709228515625" class="er attributeBoxEven"></rect><text transform="translate(45.95709228515625,97.5)" style="dominant-baseline: middle; font-size: 10.2px;" y="0" x="0" id="text-entity-PRODUCT-b14524a1-8e20-5805-a382-423fd1ec339f-attr-4-name" class="er entityLabel">stock</text><rect height="21" width="24.803314208984375" y="87" x="100.61082458496094" class="er attributeBoxEven"></rect><text transform="translate(105.61082458496094,97.5)" style="dominant-baseline: middle; font-size: 10.2px;" y="0" x="0" id="text-entity-PRODUCT-b14524a1-8e20-5805-a382-423fd1ec339f-attr-4-key" class="er entityLabel"></text></g><g transform="translate(133.40661239624023,541 )" id="entity-CARTPRODUCT-49bf0758-3f92-5ba1-8a4c-2457473de1c3"><rect height="108" width="129.125" y="0" x="0" class="er entityBox"></rect><text transform="translate(64.5625,12)" style="dominant-baseline: middle; text-anchor: middle; font-size: 12px;" y="0" x="0" id="text-entity-CARTPRODUCT-49bf0758-3f92-5ba1-8a4c-2457473de1c3" class="er entityLabel">CART_PRODUCT</text><rect height="21" width="38.9667002360026" y="24" x="0" class="er attributeBoxOdd"></rect><text transform="translate(5,34.5)" style="dominant-baseline: middle; font-size: 10.2px;" y="0" x="0" id="text-entity-CARTPRODUCT-49bf0758-3f92-5ba1-8a4c-2457473de1c3-attr-1-type" class="er entityLabel">int</text><rect height="21" width="61.65767923990885" y="24" x="38.9667002360026" class="er attributeBoxOdd"></rect><text transform="translate(43.9667002360026,34.5)" style="dominant-baseline: middle; font-size: 10.2px;" y="0" x="0" id="text-entity-CARTPRODUCT-49bf0758-3f92-5ba1-8a4c-2457473de1c3-attr-1-name" class="er entityLabel">cart_id</text><rect height="21" width="28.500620524088543" y="24" x="100.62437947591145" class="er attributeBoxOdd"></rect><text transform="translate(105.62437947591145,34.5)" style="dominant-baseline: middle; font-size: 10.2px;" y="0" x="0" id="text-entity-CARTPRODUCT-49bf0758-3f92-5ba1-8a4c-2457473de1c3-attr-1-key" class="er entityLabel">PK</text><rect height="21" width="38.9667002360026" y="45" x="0" class="er attributeBoxEven"></rect><text transform="translate(5,55.5)" style="dominant-baseline: middle; font-size: 10.2px;" y="0" x="0" id="text-entity-CARTPRODUCT-49bf0758-3f92-5ba1-8a4c-2457473de1c3-attr-2-type" class="er entityLabel">string</text><rect height="21" width="61.65767923990885" y="45" x="38.9667002360026" class="er attributeBoxEven"></rect><text transform="translate(43.9667002360026,55.5)" style="dominant-baseline: middle; font-size: 10.2px;" y="0" x="0" id="text-entity-CARTPRODUCT-49bf0758-3f92-5ba1-8a4c-2457473de1c3-attr-2-name" class="er entityLabel">user_id</text><rect height="21" width="28.500620524088543" y="45" x="100.62437947591145" class="er attributeBoxEven"></rect><text transform="translate(105.62437947591145,55.5)" style="dominant-baseline: middle; font-size: 10.2px;" y="0" x="0" id="text-entity-CARTPRODUCT-49bf0758-3f92-5ba1-8a4c-2457473de1c3-attr-2-key" class="er entityLabel">PK</text><rect height="21" width="38.9667002360026" y="66" x="0" class="er attributeBoxOdd"></rect><text transform="translate(5,76.5)" style="dominant-baseline: middle; font-size: 10.2px;" y="0" x="0" id="text-entity-CARTPRODUCT-49bf0758-3f92-5ba1-8a4c-2457473de1c3-attr-3-type" class="er entityLabel">int</text><rect height="21" width="61.65767923990885" y="66" x="38.9667002360026" class="er attributeBoxOdd"></rect><text transform="translate(43.9667002360026,76.5)" style="dominant-baseline: middle; font-size: 10.2px;" y="0" x="0" id="text-entity-CARTPRODUCT-49bf0758-3f92-5ba1-8a4c-2457473de1c3-attr-3-name" class="er entityLabel">product_id</text><rect height="21" width="28.500620524088543" y="66" x="100.62437947591145" class="er attributeBoxOdd"></rect><text transform="translate(105.62437947591145,76.5)" style="dominant-baseline: middle; font-size: 10.2px;" y="0" x="0" id="text-entity-CARTPRODUCT-49bf0758-3f92-5ba1-8a4c-2457473de1c3-attr-3-key" class="er entityLabel">PK</text><rect height="21" width="38.9667002360026" y="87" x="0" class="er attributeBoxEven"></rect><text transform="translate(5,97.5)" style="dominant-baseline: middle; font-size: 10.2px;" y="0" x="0" id="text-entity-CARTPRODUCT-49bf0758-3f92-5ba1-8a4c-2457473de1c3-attr-4-type" class="er entityLabel">int</text><rect height="21" width="61.65767923990885" y="87" x="38.9667002360026" class="er attributeBoxEven"></rect><text transform="translate(43.9667002360026,97.5)" style="dominant-baseline: middle; font-size: 10.2px;" y="0" x="0" id="text-entity-CARTPRODUCT-49bf0758-3f92-5ba1-8a4c-2457473de1c3-attr-4-name" class="er entityLabel">quantity</text><rect height="21" width="28.500620524088543" y="87" x="100.62437947591145" class="er attributeBoxEven"></rect><text transform="translate(105.62437947591145,97.5)" style="dominant-baseline: middle; font-size: 10.2px;" y="0" x="0" id="text-entity-CARTPRODUCT-49bf0758-3f92-5ba1-8a4c-2457473de1c3-attr-4-key" class="er entityLabel"></text></g><g transform="translate(495.0117721557617,20 )" id="entity-PURCHASE-6d572f07-53c8-55b4-831f-d2992ce94a0e"><rect height="129" width="109.94805908203125" y="0" x="0" class="er entityBox"></rect><text transform="translate(54.974029541015625,12)" style="dominant-baseline: middle; text-anchor: middle; font-size: 12px;" y="0" x="0" id="text-entity-PURCHASE-6d572f07-53c8-55b4-831f-d2992ce94a0e" class="er entityLabel">PURCHASE</text><rect height="21" width="40.95709228515625" y="24" x="0" class="er attributeBoxOdd"></rect><text transform="translate(5,34.5)" style="dominant-baseline: middle; font-size: 10.2px;" y="0" x="0" id="text-entity-PURCHASE-6d572f07-53c8-55b4-831f-d2992ce94a0e-attr-1-type" class="er entityLabel">int</text><rect height="21" width="44.187652587890625" y="24" x="40.95709228515625" class="er attributeBoxOdd"></rect><text transform="translate(45.95709228515625,34.5)" style="dominant-baseline: middle; font-size: 10.2px;" y="0" x="0" id="text-entity-PURCHASE-6d572f07-53c8-55b4-831f-d2992ce94a0e-attr-1-name" class="er entityLabel">id</text><rect height="21" width="24.803314208984375" y="24" x="85.14474487304688" class="er attributeBoxOdd"></rect><text transform="translate(90.14474487304688,34.5)" style="dominant-baseline: middle; font-size: 10.2px;" y="0" x="0" id="text-entity-PURCHASE-6d572f07-53c8-55b4-831f-d2992ce94a0e-attr-1-key" class="er entityLabel">PK</text><rect height="21" width="40.95709228515625" y="45" x="0" class="er attributeBoxEven"></rect><text transform="translate(5,55.5)" style="dominant-baseline: middle; font-size: 10.2px;" y="0" x="0" id="text-entity-PURCHASE-6d572f07-53c8-55b4-831f-d2992ce94a0e-attr-2-type" class="er entityLabel">int</text><rect height="21" width="44.187652587890625" y="45" x="40.95709228515625" class="er attributeBoxEven"></rect><text transform="translate(45.95709228515625,55.5)" style="dominant-baseline: middle; font-size: 10.2px;" y="0" x="0" id="text-entity-PURCHASE-6d572f07-53c8-55b4-831f-d2992ce94a0e-attr-2-name" class="er entityLabel">cart_id</text><rect height="21" width="24.803314208984375" y="45" x="85.14474487304688" class="er attributeBoxEven"></rect><text transform="translate(90.14474487304688,55.5)" style="dominant-baseline: middle; font-size: 10.2px;" y="0" x="0" id="text-entity-PURCHASE-6d572f07-53c8-55b4-831f-d2992ce94a0e-attr-2-key" class="er entityLabel"></text><rect height="21" width="40.95709228515625" y="66" x="0" class="er attributeBoxOdd"></rect><text transform="translate(5,76.5)" style="dominant-baseline: middle; font-size: 10.2px;" y="0" x="0" id="text-entity-PURCHASE-6d572f07-53c8-55b4-831f-d2992ce94a0e-attr-3-type" class="er entityLabel">string</text><rect height="21" width="44.187652587890625" y="66" x="40.95709228515625" class="er attributeBoxOdd"></rect><text transform="translate(45.95709228515625,76.5)" style="dominant-baseline: middle; font-size: 10.2px;" y="0" x="0" id="text-entity-PURCHASE-6d572f07-53c8-55b4-831f-d2992ce94a0e-attr-3-name" class="er entityLabel">user_id</text><rect height="21" width="24.803314208984375" y="66" x="85.14474487304688" class="er attributeBoxOdd"></rect><text transform="translate(90.14474487304688,76.5)" style="dominant-baseline: middle; font-size: 10.2px;" y="0" x="0" id="text-entity-PURCHASE-6d572f07-53c8-55b4-831f-d2992ce94a0e-attr-3-key" class="er entityLabel"></text><rect height="21" width="40.95709228515625" y="87" x="0" class="er attributeBoxEven"></rect><text transform="translate(5,97.5)" style="dominant-baseline: middle; font-size: 10.2px;" y="0" x="0" id="text-entity-PURCHASE-6d572f07-53c8-55b4-831f-d2992ce94a0e-attr-4-type" class="er entityLabel">date</text><rect height="21" width="44.187652587890625" y="87" x="40.95709228515625" class="er attributeBoxEven"></rect><text transform="translate(45.95709228515625,97.5)" style="dominant-baseline: middle; font-size: 10.2px;" y="0" x="0" id="text-entity-PURCHASE-6d572f07-53c8-55b4-831f-d2992ce94a0e-attr-4-name" class="er entityLabel">date</text><rect height="21" width="24.803314208984375" y="87" x="85.14474487304688" class="er attributeBoxEven"></rect><text transform="translate(90.14474487304688,97.5)" style="dominant-baseline: middle; font-size: 10.2px;" y="0" x="0" id="text-entity-PURCHASE-6d572f07-53c8-55b4-831f-d2992ce94a0e-attr-4-key" class="er entityLabel"></text><rect height="21" width="40.95709228515625" y="108" x="0" class="er attributeBoxOdd"></rect><text transform="translate(5,118.5)" style="dominant-baseline: middle; font-size: 10.2px;" y="0" x="0" id="text-entity-PURCHASE-6d572f07-53c8-55b4-831f-d2992ce94a0e-attr-5-type" class="er entityLabel">double</text><rect height="21" width="44.187652587890625" y="108" x="40.95709228515625" class="er attributeBoxOdd"></rect><text transform="translate(45.95709228515625,118.5)" style="dominant-baseline: middle; font-size: 10.2px;" y="0" x="0" id="text-entity-PURCHASE-6d572f07-53c8-55b4-831f-d2992ce94a0e-attr-5-name" class="er entityLabel">amount</text><rect height="21" width="24.803314208984375" y="108" x="85.14474487304688" class="er attributeBoxOdd"></rect><text transform="translate(90.14474487304688,118.5)" style="dominant-baseline: middle; font-size: 10.2px;" y="0" x="0" id="text-entity-PURCHASE-6d572f07-53c8-55b4-831f-d2992ce94a0e-attr-5-key" class="er entityLabel"></text></g><g transform="translate(474.2349090576172,249 )" id="entity-PURCHASEITEM-e9078bad-89db-531d-b6ae-ceeb7ddb8fc6"><rect height="192" width="151.5017852783203" y="0" x="0" class="er entityBox"></rect><text transform="translate(75.75089263916016,12)" style="dominant-baseline: middle; text-anchor: middle; font-size: 12px;" y="0" x="0" id="text-entity-PURCHASEITEM-e9078bad-89db-531d-b6ae-ceeb7ddb8fc6" class="er entityLabel">PURCHASE_ITEM</text><rect height="21" width="40.95709228515625" y="24" x="0" class="er attributeBoxOdd"></rect><text transform="translate(5,34.5)" style="dominant-baseline: middle; font-size: 10.2px;" y="0" x="0" id="text-entity-PURCHASEITEM-e9078bad-89db-531d-b6ae-ceeb7ddb8fc6-attr-1-type" class="er entityLabel">int</text><rect height="21" width="85.74137878417969" y="24" x="40.95709228515625" class="er attributeBoxOdd"></rect><text transform="translate(45.95709228515625,34.5)" style="dominant-baseline: middle; font-size: 10.2px;" y="0" x="0" id="text-entity-PURCHASEITEM-e9078bad-89db-531d-b6ae-ceeb7ddb8fc6-attr-1-name" class="er entityLabel">id</text><rect height="21" width="24.803314208984375" y="24" x="126.69847106933594" class="er attributeBoxOdd"></rect><text transform="translate(131.69847106933594,34.5)" style="dominant-baseline: middle; font-size: 10.2px;" y="0" x="0" id="text-entity-PURCHASEITEM-e9078bad-89db-531d-b6ae-ceeb7ddb8fc6-attr-1-key" class="er entityLabel">PK</text><rect height="21" width="40.95709228515625" y="45" x="0" class="er attributeBoxEven"></rect><text transform="translate(5,55.5)" style="dominant-baseline: middle; font-size: 10.2px;" y="0" x="0" id="text-entity-PURCHASEITEM-e9078bad-89db-531d-b6ae-ceeb7ddb8fc6-attr-2-type" class="er entityLabel">int</text><rect height="21" width="85.74137878417969" y="45" x="40.95709228515625" class="er attributeBoxEven"></rect><text transform="translate(45.95709228515625,55.5)" style="dominant-baseline: middle; font-size: 10.2px;" y="0" x="0" id="text-entity-PURCHASEITEM-e9078bad-89db-531d-b6ae-ceeb7ddb8fc6-attr-2-name" class="er entityLabel">purchase_id</text><rect height="21" width="24.803314208984375" y="45" x="126.69847106933594" class="er attributeBoxEven"></rect><text transform="translate(131.69847106933594,55.5)" style="dominant-baseline: middle; font-size: 10.2px;" y="0" x="0" id="text-entity-PURCHASEITEM-e9078bad-89db-531d-b6ae-ceeb7ddb8fc6-attr-2-key" class="er entityLabel">PK</text><rect height="21" width="40.95709228515625" y="66" x="0" class="er attributeBoxOdd"></rect><text transform="translate(5,76.5)" style="dominant-baseline: middle; font-size: 10.2px;" y="0" x="0" id="text-entity-PURCHASEITEM-e9078bad-89db-531d-b6ae-ceeb7ddb8fc6-attr-3-type" class="er entityLabel">int</text><rect height="21" width="85.74137878417969" y="66" x="40.95709228515625" class="er attributeBoxOdd"></rect><text transform="translate(45.95709228515625,76.5)" style="dominant-baseline: middle; font-size: 10.2px;" y="0" x="0" id="text-entity-PURCHASEITEM-e9078bad-89db-531d-b6ae-ceeb7ddb8fc6-attr-3-name" class="er entityLabel">prod_id</text><rect height="21" width="24.803314208984375" y="66" x="126.69847106933594" class="er attributeBoxOdd"></rect><text transform="translate(131.69847106933594,76.5)" style="dominant-baseline: middle; font-size: 10.2px;" y="0" x="0" id="text-entity-PURCHASEITEM-e9078bad-89db-531d-b6ae-ceeb7ddb8fc6-attr-3-key" class="er entityLabel"></text><rect height="21" width="40.95709228515625" y="87" x="0" class="er attributeBoxEven"></rect><text transform="translate(5,97.5)" style="dominant-baseline: middle; font-size: 10.2px;" y="0" x="0" id="text-entity-PURCHASEITEM-e9078bad-89db-531d-b6ae-ceeb7ddb8fc6-attr-4-type" class="er entityLabel">string</text><rect height="21" width="85.74137878417969" y="87" x="40.95709228515625" class="er attributeBoxEven"></rect><text transform="translate(45.95709228515625,97.5)" style="dominant-baseline: middle; font-size: 10.2px;" y="0" x="0" id="text-entity-PURCHASEITEM-e9078bad-89db-531d-b6ae-ceeb7ddb8fc6-attr-4-name" class="er entityLabel">prod_description</text><rect height="21" width="24.803314208984375" y="87" x="126.69847106933594" class="er attributeBoxEven"></rect><text transform="translate(131.69847106933594,97.5)" style="dominant-baseline: middle; font-size: 10.2px;" y="0" x="0" id="text-entity-PURCHASEITEM-e9078bad-89db-531d-b6ae-ceeb7ddb8fc6-attr-4-key" class="er entityLabel"></text><rect height="21" width="40.95709228515625" y="108" x="0" class="er attributeBoxOdd"></rect><text transform="translate(5,118.5)" style="dominant-baseline: middle; font-size: 10.2px;" y="0" x="0" id="text-entity-PURCHASEITEM-e9078bad-89db-531d-b6ae-ceeb7ddb8fc6-attr-5-type" class="er entityLabel">double</text><rect height="21" width="85.74137878417969" y="108" x="40.95709228515625" class="er attributeBoxOdd"></rect><text transform="translate(45.95709228515625,118.5)" style="dominant-baseline: middle; font-size: 10.2px;" y="0" x="0" id="text-entity-PURCHASEITEM-e9078bad-89db-531d-b6ae-ceeb7ddb8fc6-attr-5-name" class="er entityLabel">prod_price</text><rect height="21" width="24.803314208984375" y="108" x="126.69847106933594" class="er attributeBoxOdd"></rect><text transform="translate(131.69847106933594,118.5)" style="dominant-baseline: middle; font-size: 10.2px;" y="0" x="0" id="text-entity-PURCHASEITEM-e9078bad-89db-531d-b6ae-ceeb7ddb8fc6-attr-5-key" class="er entityLabel"></text><rect height="21" width="40.95709228515625" y="129" x="0" class="er attributeBoxEven"></rect><text transform="translate(5,139.5)" style="dominant-baseline: middle; font-size: 10.2px;" y="0" x="0" id="text-entity-PURCHASEITEM-e9078bad-89db-531d-b6ae-ceeb7ddb8fc6-attr-6-type" class="er entityLabel">int</text><rect height="21" width="85.74137878417969" y="129" x="40.95709228515625" class="er attributeBoxEven"></rect><text transform="translate(45.95709228515625,139.5)" style="dominant-baseline: middle; font-size: 10.2px;" y="0" x="0" id="text-entity-PURCHASEITEM-e9078bad-89db-531d-b6ae-ceeb7ddb8fc6-attr-6-name" class="er entityLabel">prod_stock</text><rect height="21" width="24.803314208984375" y="129" x="126.69847106933594" class="er attributeBoxEven"></rect><text transform="translate(131.69847106933594,139.5)" style="dominant-baseline: middle; font-size: 10.2px;" y="0" x="0" id="text-entity-PURCHASEITEM-e9078bad-89db-531d-b6ae-ceeb7ddb8fc6-attr-6-key" class="er entityLabel"></text><rect height="21" width="40.95709228515625" y="150" x="0" class="er attributeBoxOdd"></rect><text transform="translate(5,160.5)" style="dominant-baseline: middle; font-size: 10.2px;" y="0" x="0" id="text-entity-PURCHASEITEM-e9078bad-89db-531d-b6ae-ceeb7ddb8fc6-attr-7-type" class="er entityLabel">int</text><rect height="21" width="85.74137878417969" y="150" x="40.95709228515625" class="er attributeBoxOdd"></rect><text transform="translate(45.95709228515625,160.5)" style="dominant-baseline: middle; font-size: 10.2px;" y="0" x="0" id="text-entity-PURCHASEITEM-e9078bad-89db-531d-b6ae-ceeb7ddb8fc6-attr-7-name" class="er entityLabel">quantity</text><rect height="21" width="24.803314208984375" y="150" x="126.69847106933594" class="er attributeBoxOdd"></rect><text transform="translate(131.69847106933594,160.5)" style="dominant-baseline: middle; font-size: 10.2px;" y="0" x="0" id="text-entity-PURCHASEITEM-e9078bad-89db-531d-b6ae-ceeb7ddb8fc6-attr-7-key" class="er entityLabel"></text><rect height="21" width="40.95709228515625" y="171" x="0" class="er attributeBoxEven"></rect><text transform="translate(5,181.5)" style="dominant-baseline: middle; font-size: 10.2px;" y="0" x="0" id="text-entity-PURCHASEITEM-e9078bad-89db-531d-b6ae-ceeb7ddb8fc6-attr-8-type" class="er entityLabel">double</text><rect height="21" width="85.74137878417969" y="171" x="40.95709228515625" class="er attributeBoxEven"></rect><text transform="translate(45.95709228515625,181.5)" style="dominant-baseline: middle; font-size: 10.2px;" y="0" x="0" id="text-entity-PURCHASEITEM-e9078bad-89db-531d-b6ae-ceeb7ddb8fc6-attr-8-name" class="er entityLabel">amount</text><rect height="21" width="24.803314208984375" y="171" x="126.69847106933594" class="er attributeBoxEven"></rect><text transform="translate(131.69847106933594,181.5)" style="dominant-baseline: middle; font-size: 10.2px;" y="0" x="0" id="text-entity-PURCHASEITEM-e9078bad-89db-531d-b6ae-ceeb7ddb8fc6-attr-8-key" class="er entityLabel"></text></g><rect height="0" width="0" y="209.5" x="84.41038513183594" class="er relationshipLabelBox"></rect><text style="text-anchor: middle; dominant-baseline: middle; font-size: 12px;" y="209.5" x="84.41038513183594" id="rel1" class="er relationshipLabel"></text><rect height="0" width="0" y="472.9471130371094" x="90.65839385986328" class="er relationshipLabelBox"></rect><text style="text-anchor: middle; dominant-baseline: middle; font-size: 12px;" y="472.9471130371094" x="90.65839385986328" id="rel2" class="er relationshipLabel"></text><rect height="0" width="0" y="478.19573974609375" x="304.44244384765625" class="er relationshipLabelBox"></rect><text style="text-anchor: middle; dominant-baseline: middle; font-size: 12px;" y="478.19573974609375" x="304.44244384765625" id="rel3" class="er relationshipLabel"></text><rect height="0" width="0" y="199" x="549.9857788085938" class="er relationshipLabelBox"></rect><text style="text-anchor: middle; dominant-baseline: middle; font-size: 12px;" y="199" x="549.9857788085938" id="rel4" class="er relationshipLabel"></text></svg>